inDegrees=yes
name=ik_lifting_orientations
DataType=double
version=3
OpenSimVersion=4.5-2024-01-10-34fd6af
endheader
time	pelvis_tilt	pelvis_list	pelvis_rotation	pelvis_tx	pelvis_ty	pelvis_tz	hip_flexion_r	hip_adduction_r	hip_rotation_r	knee_angle_r	knee_angle_r_beta	ankle_angle_r	subtalar_angle_r	mtp_angle_r	hip_flexion_l	hip_adduction_l	hip_rotation_l	knee_angle_l	knee_angle_l_beta	ankle_angle_l	subtalar_angle_l	mtp_angle_l	lumbar_extension	lumbar_bending	lumbar_rotation	arm_flex_r	arm_add_r	arm_rot_r	elbow_flex_r	pro_sup_r	wrist_flex_r	wrist_dev_r	arm_flex_l	arm_add_l	arm_rot_l	elbow_flex_l	pro_sup_l	wrist_flex_l	wrist_dev_l
2.64	-17.84526762285058	1.495216650286256	-4.687299979998503	0	0.9399999999999999	0	44.99975822331456	-9.999999988589172	0	60.00028043686353	1.04720244574321	-4.999999851047241	0	0	44.99975822331456	-9.999999988589172	0	60.00028043686353	1.04720244574321	-4.999999851047241	0	0	-0.7705642755504624	-0.04243997894393967	0.02197801645019736	18.41943821380938	-0.01248822003487797	0.1512095859397401	0.507465852911381	45.00000025341826	0	0	0	-14.95266202326601	0	75.00078109395608	45.00000025341826	0	0
2.65	-17.03084255629793	1.474737603608186	-4.732318391094857	0	0.9399999999999999	0	44.9997582739569	-9.999999988589169	0	60.00028041370605	1.047202445339036	-4.999999851047241	0	0	44.9997582739569	-9.999999988589169	0	60.00028041370605	1.047202445339036	-4.999999851047241	0	0	-0.8217583840173449	-0.04373494440644835	0.02362373603382432	17.68081837832274	-0.0371004799416552	0.1853881165521075	0.4866973668268407	45.00000025341935	0	0	0	-14.9526671255255	0	75.00078096724432	45.00000025341935	0	0
2.66	-17.04008574491548	1.4745849228044	-4.732947751104652	0	0.9399999999999999	0	44.9997583419326	-9.999999988589154	0	60.00028038272924	1.047202444798389	-4.999999851047241	0	0	44.9997583419326	-9.999999988589154	0	60.00028038272924	1.047202444798389	-4.999999851047241	0	0	-0.0002604817822737109	-0.0001543456757626342	0.0009568178670074135	16.86411898995087	-0.07528102969982446	0.2176004968841422	0.487550180003851	45.00000025342082	0	0	0	-14.9526739579588	0	75.00078079716282	45.00000025342082	0	0
2.67	-16.23846584138187	1.449671887589506	-4.772973085455974	0	0.9399999999999999	0	44.99975839695283	-9.999999988589144	0	60.0002803572264	1.04720244435328	-4.999999851047241	0	0	44.99975839695283	-9.999999988589144	0	60.0002803572264	1.04720244435328	-4.999999851047241	0	0	-0.7746104951357362	-0.0426128405838628	0.02248867527524631	16.81995435340905	-0.08186148913026295	0.2198639533272779	0.5069633441157622	45.00000025342199	0	0	0	-14.95267955645532	0	75.0007806594971	45.00000025342199	0	0
2.68	-15.42093451752288	1.427864128645461	-4.817638650253055	0	0.9399999999999999	0	44.99975844733188	-9.99999998858914	0	60.00028033418426	1.047202443951119	-4.999999851047241	0	0	44.99975844733188	-9.99999998858914	0	60.00028033418426	1.047202443951119	-4.999999851047241	0	0	-0.8252853293520656	-0.04381898130188857	0.02370052105900352	16.0768895161621	-0.1074263387814285	0.2533134609366806	0.4866016581960196	45.00000025342309	0	0	0	-14.95268463421865	0	75.00078053344403	45.00000025342309	0	0
2.69	-15.43065887087446	1.427731144868703	-4.818356037356752	0	0.9399999999999999	0	44.99975851425156	-9.999999988589126	0	60.00028030368008	1.047202443418721	-4.999999851047241	0	0	44.99975851425156	-9.999999988589126	0	60.00028030368008	1.047202443418721	-4.999999851047241	0	0	-0.0004656412535767188	-0.0001516814497874104	0.0009209089670613029	15.25683683151919	-0.1467010169556945	0.2847718085458155	0.4878678375065937	45.00000025342453	0	0	0	-14.95269136349557	0	75.00078036600488	45.00000025342453	0	0
2.7	-15.42522965536853	1.426880551335173	-4.815773262741601	0	0.9399999999999999	0	44.9997691478039	-9.999999988587192	0	60.00027539224649	1.047202357698033	-4.999999851047239	0	0	44.9997691478039	-9.999999988587192	0	60.00027539224649	1.047202357698033	-4.999999851047239	0	0	-0.008914668628638524	0.001023250017224882	-0.001811332460024872	15.26056656114666	-0.1483235163845728	0.2842887506820153	0.4887847908100539	45.00000025362222	0	0	0	-14.953808826233	0	75.00075375986309	45.00000025362222	0	0
2.71	-14.53780118963342	1.361507066701467	-4.835592795743855	0	0.9399999999999999	0	44.9997692190079	-9.999999988587179	0	60.00027535916608	1.047202357120671	-4.999999851047239	0	0	44.9997692190079	-9.999999988587179	0	60.00027535916608	1.047202357120671	-4.999999851047239	0	0	-0.8951415412207889	-0.007806402716886332	-0.003645358939778081	15.25563157039686	-0.1500525520139812	0.284541718785643	0.4923783616449168	45.00000025362365	0	0	0	-14.95381619120831	0	75.00075358170415	45.00000025362365	0	0
2.72	-13.81881533049401	1.382999035234632	-4.899850056960107	0	0.9399999999999999	0	44.99976929418271	-9.999999988587168	0	60.00027532462747	1.047202356517859	-4.999999851047239	0	0	44.99976929418271	-9.999999988587168	0	60.00027532462747	1.047202356517859	-4.999999851047239	0	0	-0.7128354450291633	-0.07719192023728719	0.04655883668607712	14.36219581360801	-0.1597839231261723	0.2766162225176486	0.4835532417776208	45.00000025362517	0	0	0	-14.9538239059932	0	75.00075339360981	45.00000025362517	0	0
2.73	-13.77435847773941	2.289568789546804	-5.590676697813778	0	0.9399999999999999	0	44.99976934952457	-9.999999988587161	0	60.00027529892531	1.047202356069272	-4.999999851047239	0	0	44.99976934952457	-9.999999988587161	0	60.00027529892531	1.047202356069272	-4.999999851047239	0	0	0.02624157342383346	-0.9039787148775478	0.6765933099698979	13.66921527134526	-0.2275904320995148	0.360918928021757	0.4806643161816544	45.00000025362628	0	0	0	-14.95382963007244	0	75.0007532551393	45.00000025362628	0	0
2.74	-12.86672392750166	2.910130529059417	-4.708901699298429	0	0.9399999999999999	0	44.99976941333385	-9.999999988587152	0	60.00027526940512	1.047202355554047	-4.999999851047239	0	0	44.99976941333385	-9.999999988587152	0	60.00027526940512	1.047202355554047	-4.999999851047239	0	0	-0.8609875750935546	-0.6999161715371915	-0.9269122264119286	13.69362785453155	-0.9395207693592742	1.225811169429662	0.5083225173205581	45.00000025362755	0	0	0	-14.95383621221513	0	75.00075309548251	45.00000025362755	0	0
2.75	-12.12337371469565	2.938535355845805	-4.779405955463431	0	0.9399999999999999	0	44.99976946985053	-9.999999988587144	0	60.000275243395	1.047202355100085	-4.999999851047239	0	0	44.99976946985053	-9.999999988587144	0	60.000275243395	1.047202355100085	-4.999999851047239	0	0	-0.7416962846891586	-0.091441145475378	0.03554235448784134	12.82951066481011	-1.840809344809858	0.4898194484590705	0.4974337340176056	45.00000025362869	0	0	0	-14.95384202082788	0	75.00075295407257	45.00000025362869	0	0
2.76	-12.13122948113155	2.937326074073931	-4.780386514261764	0	0.9399999999999999	0	44.99976954278529	-9.999999988587129	0	60.00027520987103	1.047202354514981	-4.999999851047239	0	0	44.99976954278529	-9.999999988587129	0	60.00027520987103	1.047202354514981	-4.999999851047239	0	0	-0.001605997974461294	0.0006951428725806069	-7.86268250184273e-07	12.105942982365	-1.913623021015866	0.5472877602630231	0.4869940823563642	45.00000025363015	0	0	0	-14.95384951085495	0	75.00075277158309	45.00000025363015	0	0
